# xmcd
#
# Track frame offsets:
#	150
#	18963
#	32311
#	45727
#	61077
#	71469
#	83280
#	98640
#	108167
#	122631
#	135326
#	148715
#	165263
#	184351
#	202587
#	220489
#	238996
#	260847
#	282748
#	298836
#	309313
#	329351
#	339913
#
# Disc length: 4787 seconds
#
# Revision: 0
# Processed by: cddbd v1.4PL0 Copyright (c) Steve Scherf et al.
# Submitted via: dBpowerAMP V4.0
#
DISCID=4412b117
DTITLE=Ryan Adams - The Best Of The Demos 1998/1999
DYEAR=2000
DGENRE=Country
TTITLE0=In My Time Of Need
TTITLE1=Barlights
TTITLE2=Win
TTITLE3=All I Wanted
TTITLE4=Out Of Time
TTITLE5=Sit And Listen
TTITLE6=Night Lights
TTITLE7=Probably Going To Happen
TTITLE8=West NY Serenade
TTITLE9=Lil Gals
TTITLE10=In The World
TTITLE11=Medicine
TTITLE12=Dialtone
TTITLE13=Dont Wanna Know Why
TTITLE14=Easy Hearts
TTITLE15=Sitting Around
TTITLE16=Rays Of Light
TTITLE17=Ghosts Without Memories
TTITLE18=Runnin Out Of World
TTITLE19=Talkin In My Sleep
TTITLE20=(What You) Think About Me
TTITLE21=A Memory Away
TTITLE22=Caroline
EXTD=
EXTT0=
EXTT1=
EXTT2=
EXTT3=
EXTT4=
EXTT5=
EXTT6=
EXTT7=
EXTT8=
EXTT9=
EXTT10=
EXTT11=
EXTT12=
EXTT13=
EXTT14=
EXTT15=
EXTT16=
EXTT17=
EXTT18=
EXTT19=
EXTT20=
EXTT21=
EXTT22=
PLAYORDER=
